<?xml version="1.0" standalone="no"?>
<!DOCTYPE svg PUBLIC "-//W3C//DTD SVG 20010904//EN"
 "http://www.w3.org/TR/2001/REC-SVG-20010904/DTD/svg10.dtd">
<svg version="1.0" xmlns="http://www.w3.org/2000/svg"
 width="512.000000pt" height="512.000000pt" viewBox="0 0 512.000000 512.000000"
 preserveAspectRatio="xMidYMid meet">

<g transform="translate(0.000000,512.000000) scale(0.100000,-0.100000)"
fill="#000000" stroke="none">
<path d="M2368 4808 c-2 -17 -11 -24 -31 -26 -15 -2 -25 -8 -22 -13 10 -15 43
-10 53 8 9 15 11 15 26 1 10 -11 24 -14 38 -10 22 6 21 7 -5 10 -19 2 -31 11
-37 28 -12 30 -18 30 -22 2z"/>
<path d="M2642 4808 c-8 -18 -20 -28 -39 -30 -20 -2 -24 -5 -12 -10 9 -3 28 0
42 7 22 11 26 11 31 -1 6 -15 56 -20 56 -5 0 5 -12 11 -27 13 -19 2 -29 10
-34 28 l-6 25 -11 -27z"/>
<path d="M2088 4778 c-2 -15 -11 -24 -25 -26 -13 -2 -23 -7 -23 -10 0 -4 10
-12 23 -17 16 -7 21 -17 18 -35 l-3 -25 22 20 c18 16 24 17 42 6 26 -16 33 -9
18 19 -10 18 -8 24 7 36 17 12 16 13 -9 14 -17 0 -31 8 -38 20 -14 26 -28 25
-32 -2z"/>
<path d="M2915 4780 c-5 -14 -15 -20 -38 -20 -30 -1 -31 -1 -13 -15 16 -12 18
-19 8 -40 -13 -28 -10 -30 18 -13 16 10 23 9 40 -7 l21 -19 -3 29 c-2 25 1 31
20 33 30 5 28 22 -3 22 -18 0 -25 5 -25 19 0 28 -17 35 -25 11z"/>
<path d="M2351 4743 c0 -6 -4 -20 -7 -30 -5 -14 -4 -15 5 -7 7 7 11 20 8 30
-3 11 -5 14 -6 7z"/>
<path d="M2410 4728 c0 -9 5 -20 10 -23 13 -8 13 5 0 25 -8 13 -10 13 -10 -2z"/>
<path d="M1730 4722 c0 -4 16 -14 35 -21 19 -7 35 -16 35 -21 0 -5 8 -10 18
-13 15 -3 15 -5 -3 -12 -11 -4 -71 -27 -134 -52 -125 -48 -299 -134 -401 -199
-36 -22 -84 -53 -107 -67 -24 -15 -43 -25 -43 -22 0 9 144 111 198 140 28 15
50 30 48 33 -3 2 -32 -12 -65 -32 -34 -19 -61 -33 -61 -29 0 3 -7 0 -16 -8
-14 -11 -15 -10 -12 7 1 10 10 24 18 31 26 20 -30 9 -65 -13 -63 -40 -154
-109 -159 -121 -3 -6 3 -17 12 -25 8 -7 13 -8 10 -3 -3 6 6 10 22 11 24 1 17
-8 -59 -71 -86 -71 -264 -253 -304 -310 -12 -16 14 6 57 50 46 47 61 59 37 30
-98 -118 -192 -247 -248 -340 -226 -374 -323 -733 -310 -1145 8 -250 38 -407
121 -643 169 -475 519 -879 1004 -1156 50 -30 92 -55 92 -58 0 -18 -164 75
-310 176 -167 115 -345 283 -493 464 -44 53 -82 97 -85 97 -2 0 1 -7 8 -15 21
-26 2 -16 -24 12 l-25 26 9 -36 c4 -20 30 -67 56 -104 27 -37 49 -74 49 -81 0
-20 115 -143 127 -136 6 4 8 3 5 -3 -14 -22 202 -210 376 -327 218 -145 668
-341 740 -321 15 4 18 3 9 -3 -11 -7 -7 -11 13 -16 15 -4 30 -5 33 -1 3 3 -3
5 -13 5 -10 0 -16 2 -13 5 2 3 45 -4 94 -14 103 -22 302 -46 311 -37 4 3 -3 6
-15 6 -13 0 -22 6 -22 15 0 8 -5 15 -11 15 -5 0 -8 4 -4 9 3 5 -18 14 -47 20
-35 6 -39 8 -13 6 22 -3 132 -8 245 -11 161 -5 232 -3 329 10 133 18 174 16
65 -3 -79 -14 -120 -36 -101 -56 18 -17 192 5 351 45 65 17 121 29 123 27 2
-2 -27 -12 -64 -22 -37 -10 -63 -20 -56 -22 19 -7 303 92 423 147 201 92 360
188 516 311 99 79 205 179 199 189 -3 4 3 14 13 21 16 13 16 12 2 -6 -8 -11 3
-4 23 14 40 38 51 56 15 25 -21 -17 -21 -17 1 8 13 15 27 25 31 23 4 -2 20 10
36 28 l29 32 -32 -29 c-18 -17 -33 -25 -33 -20 0 17 66 75 75 67 4 -5 5 -2 1
4 -4 8 11 39 38 76 24 34 46 69 48 77 2 8 6 17 9 20 4 3 10 16 14 30 7 24 7
24 -12 7 -11 -9 -24 -17 -29 -17 -6 0 -52 -52 -103 -115 -185 -228 -457 -454
-706 -586 -109 -58 -73 -24 50 46 174 100 332 223 487 381 277 283 475 645
552 1011 38 184 49 308 43 498 -11 337 -76 594 -224 885 -94 185 -213 354
-362 512 -50 54 -91 101 -91 105 0 4 28 -19 63 -52 l62 -60 -65 68 c-36 38
-103 101 -149 140 -112 96 -139 120 -123 112 8 -4 19 1 27 11 13 18 14 18 15
2 0 -10 -5 -18 -11 -18 -5 0 -7 -4 -4 -10 3 -5 11 -10 17 -10 6 0 8 3 5 7 -4
3 -2 12 5 20 6 7 9 15 7 16 -2 2 -24 19 -49 38 -25 20 -62 46 -82 58 -33 19
-37 20 -31 5 4 -12 3 -15 -5 -10 -8 5 -10 2 -6 -8 3 -9 10 -13 15 -10 5 3 6
-2 3 -10 -5 -14 -9 -14 -37 0 l-32 15 25 -20 c25 -21 37 -25 55 -21 6 1 7 -2
3 -6 -11 -10 30 -37 44 -28 6 4 8 3 5 -3 -4 -6 39 -48 94 -94 132 -110 139
-116 139 -124 0 -4 -30 20 -67 53 -93 81 -264 197 -410 276 -116 63 -378 176
-409 176 -29 0 -13 19 37 44 35 17 47 27 37 31 -9 4 -56 -18 -109 -49 -88 -51
-91 -55 -65 -62 16 -4 37 -1 51 6 30 16 74 8 168 -31 106 -44 277 -129 314
-156 17 -12 34 -23 38 -23 8 0 69 -43 73 -52 2 -5 8 -8 14 -8 6 0 23 -10 39
-22 15 -13 55 -43 89 -68 34 -25 58 -50 56 -57 -3 -7 0 -15 6 -19 7 -4 8 -3 4
4 -32 53 109 -64 240 -197 151 -153 275 -337 383 -570 46 -98 52 -120 47 -155
-4 -29 3 -72 24 -146 105 -373 101 -685 -11 -1107 -31 -118 -39 -139 -97 -268
-161 -360 -496 -713 -905 -953 -48 -28 -87 -47 -87 -42 0 6 8 14 18 17 45 17
198 115 302 194 111 85 232 198 199 186 -14 -4 -16 0 -14 26 1 18 -2 38 -8 44
-6 9 -6 13 2 13 6 0 11 -5 11 -10 0 -6 10 -15 23 -20 l22 -9 -22 0 c-25 -1
-31 -26 -9 -34 9 -4 35 16 68 49 53 54 74 85 47 68 -7 -4 -26 -7 -41 -6 -33 3
-47 -17 -24 -33 15 -12 15 -13 0 -19 -20 -8 -24 -8 -23 1 4 23 -3 33 -23 34
l-23 1 23 6 c30 9 31 24 1 39 -20 10 -21 13 -6 13 11 0 23 12 30 30 9 23 16
28 33 24 26 -7 41 21 17 34 -14 8 -14 10 1 15 9 4 16 13 16 21 0 9 7 12 20 9
24 -6 40 25 19 38 -12 8 -12 10 0 18 8 5 11 16 8 24 -4 11 1 14 19 12 22 -2
25 1 20 21 -4 14 -2 24 4 24 5 0 10 11 10 25 0 14 5 25 10 25 6 0 10 -4 10
-10 0 -5 7 -10 15 -10 8 0 15 5 15 10 0 6 -7 13 -15 16 -19 8 -20 24 -1 24 8
0 15 16 19 41 3 23 11 45 18 50 7 4 14 16 15 26 2 9 8 19 13 21 6 2 11 13 11
24 0 11 6 34 14 51 48 109 81 231 106 387 9 59 18 83 41 108 16 17 35 32 42
32 7 0 31 18 53 39 21 22 41 36 44 31 15 -24 -41 -343 -82 -470 -29 -91 -88
-243 -100 -257 -7 -9 -7 -13 0 -13 5 0 12 6 15 13 91 221 145 404 172 585 16
104 20 222 8 222 -5 0 -18 -17 -31 -38 -13 -20 -56 -61 -96 -89 l-73 -53 -6
-60 c-8 -76 -62 -294 -94 -385 -62 -171 -183 -374 -320 -536 -69 -83 -94 -105
-46 -42 39 51 5 30 -47 -30 -116 -131 -333 -289 -578 -420 -45 -24 -79 -47
-75 -52 5 -4 0 -5 -10 -2 -10 4 -22 7 -25 7 -4 0 54 32 128 72 292 154 508
333 685 570 76 100 211 325 202 334 -2 3 -32 -46 -67 -108 -62 -111 -126 -188
-156 -188 -8 0 -13 -4 -10 -8 2 -4 0 -14 -5 -22 -7 -11 -8 -8 -5 10 3 14 5 28
5 32 1 4 9 5 19 2 14 -5 14 -4 3 4 -19 13 -45 0 -67 -34 -26 -38 -29 -20 -4
20 18 30 19 35 5 29 -16 -6 -16 -4 0 23 11 19 -1 10 -34 -24 -28 -29 -51 -49
-51 -43 0 5 5 13 10 16 6 3 10 11 10 17 0 6 -7 5 -17 -3 -15 -13 -15 -12 -3
11 l13 25 -29 -25 -28 -25 17 28 c29 45 9 31 -72 -50 -112 -113 -229 -213
-329 -281 -100 -68 -290 -172 -316 -172 -15 0 -15 -2 -1 -24 14 -22 115 -244
115 -254 0 -13 -56 80 -92 152 -22 44 -42 82 -43 84 -2 2 -41 -10 -87 -26
-198 -70 -471 -109 -673 -97 -191 12 -347 45 -576 121 -11 4 -30 -23 -74 -108
-64 -125 -63 -123 -70 -117 -2 3 22 63 55 134 65 140 63 135 52 135 -4 0 -27
-40 -52 -89 l-45 -89 -27 14 c-32 16 -38 35 -9 27 10 -3 22 1 27 8 5 9 2 10
-10 6 -11 -5 -15 -3 -10 5 4 6 -2 18 -12 26 -16 13 -16 14 -2 9 10 -4 27 -3
39 1 21 8 21 9 3 27 -10 10 -19 25 -21 34 -1 8 -8 20 -16 26 -8 5 -13 18 -11
27 1 11 -3 15 -12 11 -8 -3 -14 -2 -13 3 4 24 -6 35 -60 68 -83 51 -204 142
-286 217 -74 67 -189 185 -213 220 -12 17 -16 18 -23 8 -7 -12 -11 -11 -20 1
-9 12 -10 12 -5 -4 5 -13 2 -17 -8 -13 -11 4 -13 1 -9 -11 6 -16 5 -16 -14 1
-19 16 -20 16 -33 -8 -9 -17 -17 -22 -25 -15 -7 5 -15 7 -19 3 -4 -4 -4 0 -1
8 8 22 -20 20 -35 -2 -12 -16 -15 -15 -35 9 -31 38 -92 136 -132 212 -19 36
-31 54 -27 40 10 -37 99 -193 162 -285 189 -274 430 -481 737 -635 61 -30 112
-56 114 -57 1 -1 0 -7 -4 -13 -4 -7 -10 -8 -14 -3 -3 5 -55 35 -116 68 -212
112 -379 236 -544 404 -49 50 -91 86 -93 80 -8 -24 -178 221 -238 342 -93 187
-134 316 -169 519 -11 62 -23 115 -28 119 -4 4 -34 27 -66 51 -32 24 -74 62
-93 84 l-34 40 0 -37 c0 -54 28 -260 51 -369 23 -112 66 -246 98 -303 25 -46
23 -38 -30 104 -40 106 -82 305 -95 445 -7 78 0 92 26 56 8 -11 20 -20 27 -20
7 0 13 -4 13 -8 0 -5 16 -16 35 -25 44 -21 59 -51 79 -166 27 -149 54 -246 94
-341 15 -37 25 -64 26 -72 1 -3 4 -10 9 -14 4 -4 7 -20 7 -36 0 -18 5 -28 15
-28 19 0 37 -34 29 -55 -5 -11 0 -18 15 -22 17 -4 19 -8 10 -20 -10 -11 -8
-15 9 -20 13 -3 22 -13 22 -24 0 -11 5 -19 11 -19 8 0 8 -5 -1 -15 -15 -18 -5
-49 14 -42 16 6 37 -29 33 -58 -1 -15 3 -19 18 -18 24 2 48 -40 33 -55 -14
-14 -1 -32 25 -33 20 -1 20 -2 2 -6 -11 -3 -24 -10 -30 -17 -16 -20 -65 -29
-65 -12 0 8 -8 17 -18 21 -16 6 -16 7 1 16 19 11 24 39 6 39 -6 0 -19 -5 -31
-11 -17 -9 -19 -8 -14 9 5 16 0 24 -21 34 -19 9 -30 23 -33 43 -3 17 -11 30
-19 30 -17 0 -49 50 -126 195 -30 58 -53 94 -49 80 3 -14 29 -68 56 -120 179
-339 459 -632 800 -834 107 -64 157 -107 60 -52 -168 95 -306 197 -463 343
-274 253 -426 479 -535 794 -84 244 -108 392 -108 674 0 261 10 332 100 660 4
16 3 17 -5 5 -9 -12 -11 -10 -11 12 0 32 18 83 66 185 19 40 34 75 34 78 0 20
164 264 246 365 50 62 191 200 198 193 3 -3 6 -1 6 6 0 13 39 50 53 51 4 0 19
12 32 28 13 15 27 24 31 19 4 -4 -1 -14 -12 -22 -10 -8 -14 -15 -8 -15 5 0 23
14 40 32 16 18 21 26 11 19 -9 -8 -21 -11 -25 -7 -7 8 7 20 88 76 69 48 152
107 167 120 7 5 15 10 19 10 3 0 18 8 32 19 25 17 60 37 165 94 23 13 80 38
127 56 47 19 92 37 100 41 36 17 81 21 114 9 24 -9 42 -10 56 -3 21 9 20 11
-16 29 -21 11 -62 35 -93 53 -54 32 -81 40 -81 24z m2120 -342 c0 -5 -2 -10
-4 -10 -3 0 -8 5 -11 10 -3 6 -1 10 4 10 6 0 11 -4 11 -10z m640 -2830 c-11
-22 -23 -40 -25 -40 -3 0 4 18 15 40 11 22 23 40 25 40 3 0 -4 -18 -15 -40z
m-3913 -55 c15 -28 15 -29 -1 -16 -18 15 -46 64 -46 78 1 11 28 -25 47 -62z
m3844 -58 c-10 -9 -11 -8 -5 6 3 10 9 15 12 12 3 -3 0 -11 -7 -18z m-3350
-184 c13 -16 12 -17 -3 -4 -10 7 -18 15 -18 17 0 8 8 3 21 -13z m-166 -23 c-3
-5 -14 -10 -23 -9 -14 0 -13 2 3 9 27 11 27 11 20 0z m80 -8 c-11 -2 -26 -11
-32 -20 -7 -9 -13 -11 -13 -5 0 7 5 15 10 18 6 4 8 10 5 14 -2 5 8 6 23 3 22
-5 23 -7 7 -10z m3050 0 c-3 -3 -11 0 -18 7 -9 10 -8 11 6 5 10 -3 15 -9 12
-12z m-3334 -84 c29 -35 46 -57 36 -49 -20 16 -101 111 -94 111 2 0 28 -28 58
-62z m250 19 c-10 -9 -11 -8 -5 6 3 10 9 15 12 12 3 -3 0 -11 -7 -18z m3096
17 c-3 -3 -12 -4 -19 -1 -8 3 -5 6 6 6 11 1 17 -2 13 -5z m-62 -24 c3 -5 1
-10 -4 -10 -6 0 -11 5 -11 10 0 6 2 10 4 10 3 0 8 -4 11 -10z m35 0 c0 -5 -5
-10 -11 -10 -5 0 -7 5 -4 10 3 6 8 10 11 10 2 0 4 -4 4 -10z m-57 -27 c-7 -2
-21 -2 -30 0 -10 3 -4 5 12 5 17 0 24 -2 18 -5z m87 3 c0 -2 -7 -6 -15 -10 -8
-3 -15 -1 -15 4 0 6 7 10 15 10 8 0 15 -2 15 -4z m-49 -34 c-7 -2 -18 1 -23 6
-8 8 -4 9 13 5 13 -4 18 -8 10 -11z m-755 -69 c2 -27 1 -27 -14 3 -8 15 -8 21
1 21 7 0 13 -11 13 -24z m-1136 -144 c116 -25 106 -127 -19 -183 -22 -11 -38
-22 -36 -27 3 -4 30 -11 60 -14 54 -7 63 -16 46 -44 -8 -12 -16 -12 -55 -1
-37 10 -44 15 -35 26 9 11 8 14 -6 14 -10 0 -26 9 -36 21 -15 17 -21 19 -39 9
-12 -6 -24 -10 -26 -7 -3 3 23 21 58 40 64 36 108 71 108 86 0 4 -9 16 -20 26
-14 13 -29 16 -57 12 -25 -4 -44 -1 -56 8 -20 14 -14 22 31 35 15 5 28 9 29 9
1 1 25 -4 53 -10z m893 5 c16 -16 -15 -44 -47 -44 -38 0 -71 -24 -81 -57 -8
-27 -9 -27 43 -9 72 26 132 -3 132 -63 -1 -52 -27 -81 -85 -92 -84 -16 -127
13 -146 96 -19 86 4 134 76 160 42 15 97 19 108 9z m-583 -49 c48 -25 70 -62
70 -117 0 -89 -50 -148 -125 -148 -73 0 -125 59 -125 143 0 101 95 166 180
122z m308 -20 c12 -14 22 -35 22 -46 0 -29 -25 -73 -57 -100 -45 -38 -42 -43
20 -40 55 2 57 2 57 -23 0 -22 -5 -26 -27 -26 -16 0 -65 -3 -110 -7 -83 -6
-83 -6 -83 18 0 16 21 45 66 88 75 74 82 104 26 109 -18 2 -40 -2 -47 -8 -9
-7 -26 -9 -45 -5 -26 6 -29 9 -19 27 29 53 154 62 197 13z m-1109 -55 c0 -8
-6 0 -14 19 -8 18 -15 41 -14 50 1 19 27 -47 28 -69z m1781 -40 c0 -5 -4 -10
-10 -10 -5 0 -10 5 -10 10 0 6 5 10 10 10 6 0 10 -4 10 -10z m-1715 -58 c-3
-3 -11 0 -18 7 -9 10 -8 11 6 5 10 -3 15 -9 12 -12z m315 -14 c0 -4 -9 -8 -20
-8 -11 0 -20 4 -20 8 0 4 9 8 20 8 11 0 20 -4 20 -8z m1515 -10 c-4 -9 -36
-29 -73 -46 -71 -32 -342 -122 -364 -121 -7 0 39 17 102 38 135 44 330 129
330 144 0 6 2 8 5 5 3 -3 3 -12 0 -20z m-1882 -53 c60 -28 36 -28 -38 0 -70
26 -95 41 -95 56 0 5 21 -1 48 -14 26 -14 64 -32 85 -42z m264 9 c-3 -3 -12
-4 -19 -1 -8 3 -5 6 6 6 11 1 17 -2 13 -5z m1238 -4 c-11 -5 -27 -9 -35 -9 -9
0 -8 4 5 9 11 5 27 9 35 9 9 0 8 -4 -5 -9z m-1180 -10 c13 -5 14 -9 5 -9 -8 0
-24 4 -35 9 -13 5 -14 9 -5 9 8 0 24 -4 35 -9z m1105 -10 c-34 -11 -60 -11
-35 0 11 5 29 8 40 8 16 0 15 -2 -5 -8z m-845 -36 c162 -23 453 -20 625 5 139
21 167 24 159 17 -10 -10 -233 -45 -353 -56 -154 -14 -343 -1 -516 35 -121 26
-97 25 85 -1z m-258 -60 c-3 -3 -12 -4 -19 -1 -8 3 -5 6 6 6 11 1 17 -2 13 -5z
m600 -1 c-20 -2 -52 -2 -70 0 -17 2 0 4 38 4 39 0 53 -2 32 -4z m440 -19 c-3
-3 -12 -4 -19 -1 -8 3 -5 6 6 6 11 1 17 -2 13 -5z m-900 -10 c-3 -3 -12 -4
-19 -1 -8 3 -5 6 6 6 11 1 17 -2 13 -5z m856 -1 c-7 -2 -19 -2 -25 0 -7 3 -2
5 12 5 14 0 19 -2 13 -5z m-800 -10 c-7 -2 -21 -2 -30 0 -10 3 -4 5 12 5 17 0
24 -2 18 -5z m654 -59 c-3 -3 -12 -4 -19 -1 -8 3 -5 6 6 6 11 1 17 -2 13 -5z"/>
<path d="M2905 720 c-21 -23 -14 -46 19 -62 47 -21 98 36 64 70 -18 18 -63 14
-83 -8z"/>
<path d="M2327 772 c-25 -27 -23 -114 3 -137 41 -37 90 6 90 78 0 65 -56 100
-93 59z"/>
<path d="M2670 4721 c0 -6 5 -13 10 -16 6 -3 10 1 10 9 0 9 -4 16 -10 16 -5 0
-10 -4 -10 -9z"/>
<path d="M2048 4613 c6 -2 18 -2 25 0 6 3 1 5 -13 5 -14 0 -19 -2 -12 -5z"/>
<path d="M2958 4613 c6 -2 18 -2 25 0 6 3 1 5 -13 5 -14 0 -19 -2 -12 -5z"/>
<path d="M1998 4603 c6 -2 18 -2 25 0 6 3 1 5 -13 5 -14 0 -19 -2 -12 -5z"/>
<path d="M2375 4583 c-15 -3 -34 -31 -64 -91 l-43 -86 -32 35 c-17 20 -47 55
-66 79 -32 38 -39 42 -64 36 l-29 -7 7 -67 c4 -37 12 -100 18 -139 9 -65 13
-73 32 -73 44 0 50 13 40 84 -6 36 -8 66 -4 66 3 0 23 -23 45 -50 52 -66 70
-63 110 12 17 32 33 58 38 58 4 0 7 -15 7 -32 0 -18 3 -50 7 -71 6 -37 7 -39
36 -33 17 3 32 8 34 9 7 8 -33 271 -42 272 -5 1 -19 0 -30 -2z"/>
<path d="M2515 4501 c-4 -49 -4 -103 0 -119 22 -104 214 -122 254 -23 7 15 15
68 19 118 l8 91 -31 5 c-16 3 -33 3 -36 1 -3 -2 -9 -45 -12 -96 -6 -78 -10
-96 -28 -110 -26 -22 -48 -23 -78 -2 -21 15 -22 22 -20 118 l3 101 -36 3 -36
3 -7 -90z"/>
<path d="M2895 4548 c-8 -24 -65 -251 -65 -259 0 -4 14 -10 31 -14 38 -9 43
-2 59 76 7 33 16 59 19 59 3 0 28 -40 54 -89 36 -69 53 -90 73 -95 15 -4 28
-5 31 -2 3 2 20 64 38 136 35 137 35 137 -14 142 -20 3 -26 -3 -33 -32 -5 -19
-14 -53 -19 -74 l-11 -40 -47 87 c-26 48 -52 91 -57 96 -18 17 -54 23 -59 9z"/>
<path d="M3210 4334 c-38 -75 -60 -128 -54 -134 18 -18 163 -70 196 -70 111 0
185 125 128 217 -21 35 -50 53 -145 88 l-61 23 -64 -124z m160 21 c58 -30 71
-82 31 -129 -27 -31 -56 -37 -106 -20 -25 9 -45 20 -45 25 0 21 66 139 78 139
7 0 26 -7 42 -15z"/>
<path d="M1698 4434 c-27 -14 -28 -16 -28 -108 0 -109 -10 -193 -20 -176 -6 9
-25 4 -69 -17 l-62 -30 -23 31 c-13 17 -40 59 -60 93 l-37 63 -31 -16 c-24
-12 -33 -13 -42 -3 -8 9 -8 10 3 4 9 -5 12 -4 8 3 -10 15 -41 4 -77 -28 -17
-16 -45 -34 -61 -41 -21 -8 -27 -15 -20 -22 8 -8 17 -4 32 11 11 12 24 20 30
17 5 -4 9 -1 9 4 0 6 7 11 16 11 9 0 14 -6 11 -13 -3 -8 4 -13 22 -12 19 0 26
-5 25 -17 -1 -10 4 -18 11 -18 7 0 15 -7 19 -15 3 -8 1 -15 -4 -15 -6 0 -10
-5 -10 -12 0 -8 5 -7 16 3 14 14 13 19 -7 53 -12 20 -20 39 -17 41 4 4 88
-120 124 -182 10 -18 23 -33 29 -33 5 0 48 23 95 50 47 27 102 57 123 66 32
14 37 21 37 49 0 31 4 34 60 55 l59 22 29 -21 c25 -18 33 -19 61 -8 17 6 31
14 31 17 0 11 -229 210 -242 210 -7 -1 -25 -8 -40 -16z m84 -101 c15 -15 28
-30 28 -34 0 -6 -53 -29 -66 -29 -2 0 -4 20 -4 45 0 25 3 45 7 45 4 0 20 -12
35 -27z"/>
<path d="M1448 4402 c-37 -21 -71 -42 -75 -46 -7 -8 143 70 156 81 2 1 0 3 -5
3 -5 0 -39 -17 -76 -38z"/>
<path d="M3530 4420 c23 -17 130 -71 130 -65 0 2 -28 19 -62 37 -70 37 -90 45
-68 28z"/>
<path d="M1274 4344 c-18 -14 -18 -15 4 -4 12 6 22 13 22 15 0 8 -5 6 -26 -11z"/>
<path d="M1260 4294 c-172 -110 -413 -338 -530 -501 -49 -67 -29 -51 41 35
144 176 319 336 494 452 89 58 104 70 90 69 -6 0 -48 -25 -95 -55z"/>
<path d="M3675 4343 c6 -6 46 -34 90 -63 141 -94 346 -277 464 -415 42 -49 42
-49 10 -5 -87 120 -296 317 -428 404 -96 63 -155 97 -136 79z"/>
<path d="M1216 4304 c-5 -14 -4 -15 9 -4 17 14 19 20 6 20 -5 0 -12 -7 -15
-16z"/>
<path d="M3780 4316 c0 -2 7 -7 16 -10 8 -3 12 -2 9 4 -6 10 -25 14 -25 6z"/>
<path d="M3535 4187 c-41 -61 -75 -117 -75 -123 0 -7 12 -20 27 -29 26 -18 27
-17 49 10 12 16 46 66 76 112 29 46 58 81 64 79 28 -11 -1 33 -32 47 l-34 17
-75 -113z"/>
<path d="M1170 4275 c-7 -8 -18 -15 -25 -15 -7 0 -15 -6 -18 -14 -4 -11 4 -9
29 6 19 11 34 24 34 29 0 13 -6 11 -20 -6z"/>
<path d="M3870 4256 c0 -2 7 -9 15 -16 9 -7 15 -8 15 -2 0 5 -7 12 -15 16 -8
3 -15 4 -15 2z"/>
<path d="M3746 4234 c-4 -9 -4 -19 -1 -22 3 -3 5 0 5 6 0 8 11 9 33 6 31 -6
31 -6 12 9 -26 21 -41 21 -49 1z"/>
<path d="M2260 4205 c-58 -7 -112 -15 -120 -18 -8 -2 -33 -7 -55 -11 -76 -14
-240 -68 -330 -109 -425 -191 -773 -579 -902 -1002 -57 -187 -80 -500 -52
-701 44 -318 203 -644 428 -878 117 -121 280 -248 391 -306 39 -20 22 -7 -75
58 -243 162 -453 399 -584 657 -62 123 -125 331 -117 390 4 30 3 35 -4 20 -7
-14 -8 1 -6 50 4 52 3 60 -3 30 -8 -37 -8 -38 -10 -9 0 17 -3 51 -5 75 -3 31
-2 35 3 14 4 -17 10 39 14 135 7 172 23 264 72 419 122 382 374 698 732 914
88 54 119 69 263 133 36 16 67 32 68 36 2 5 8 5 14 2 6 -4 14 -1 18 5 10 17
165 58 286 76 262 39 627 -3 794 -91 25 -14 97 -48 160 -78 373 -173 663 -473
824 -855 89 -212 131 -444 123 -677 -3 -71 -8 -142 -12 -159 -5 -21 -4 -26 3
-16 22 31 -2 -90 -43 -214 -75 -230 -180 -407 -347 -585 -152 -163 -293 -272
-475 -366 -117 -61 -134 -71 -88 -54 57 21 200 103 304 174 131 88 322 275
415 406 120 169 223 408 262 607 26 129 24 612 -2 654 -3 6 -13 43 -21 82 -17
84 -86 250 -150 362 -129 227 -328 433 -562 584 -73 47 -235 127 -278 137 -15
4 -32 10 -38 14 -19 14 -151 50 -280 76 -162 32 -448 41 -615 19z m-1443
-1667 c-2 -13 -4 -5 -4 17 -1 22 1 32 4 23 2 -10 2 -28 0 -40z"/>
<path d="M1171 4144 c-44 -35 -83 -69 -86 -74 -6 -9 56 -91 143 -189 l39 -45
91 73 c51 40 92 75 92 76 0 2 -6 14 -13 28 l-14 26 -30 -22 c-17 -12 -47 -35
-67 -51 l-37 -29 -20 20 -20 20 50 38 c28 22 51 44 51 51 0 18 -28 37 -45 31
-8 -4 -17 -2 -20 3 -4 6 -12 10 -18 10 -7 0 -6 -4 3 -10 13 -9 11 -14 -13 -35
-32 -28 -49 -31 -65 -12 -9 10 2 24 49 59 33 26 55 49 49 53 -6 3 -8 10 -6 14
3 4 -4 12 -14 18 -15 10 -30 3 -99 -53z"/>
<path d="M3681 4088 c-77 -39 -141 -74 -141 -78 0 -4 12 -16 27 -25 22 -15 32
-16 56 -7 27 10 35 8 79 -24 26 -20 48 -36 48 -37 0 -1 -4 -16 -9 -33 -8 -28
-6 -34 20 -53 29 -22 49 -21 49 2 0 7 18 72 40 146 39 126 40 134 23 147 -45
36 -46 35 -192 -38z m111 -40 c-7 -7 -12 -22 -12 -35 0 -28 -13 -29 -45 -5
l-23 17 41 21 c44 21 59 22 39 2z"/>
<path d="M3597 4099 c7 -7 15 -10 18 -7 3 3 -2 9 -12 12 -14 6 -15 5 -6 -5z"/>
<path d="M2410 4005 c-17 -10 -52 -15 -111 -14 -47 1 -92 -2 -100 -7 -18 -11
-113 -124 -104 -124 3 0 26 11 51 25 24 14 46 25 49 25 3 -1 20 10 38 24 27
20 40 24 75 19 35 -5 49 -1 82 22 56 39 69 58 20 30z"/>
<path d="M980 3965 l-23 -24 59 -53 c32 -29 79 -72 104 -95 24 -24 50 -43 56
-43 6 0 20 10 32 23 l22 23 -107 97 c-59 53 -110 97 -113 97 -4 0 -17 -11 -30
-25z"/>
<path d="M2697 3978 l-28 -13 63 -67 c36 -39 72 -68 83 -68 17 0 17 -2 5 -10
-20 -13 -13 -12 42 5 29 8 50 10 53 4 8 -12 25 -11 25 2 0 6 -8 13 -19 16 -15
4 -47 46 -90 121 -11 18 -100 25 -134 10z"/>
<path d="M4260 3986 c0 -2 8 -10 18 -17 15 -13 16 -12 3 4 -13 16 -21 21 -21
13z"/>
<path d="M3979 3932 c-26 -20 -74 -59 -108 -86 -33 -27 -61 -54 -61 -60 1 -6
32 -44 69 -84 64 -68 71 -72 90 -60 12 7 21 17 21 23 0 6 -20 33 -44 60 l-44
51 90 73 90 73 -23 24 c-12 13 -25 24 -28 24 -3 0 -27 -17 -52 -38z"/>
<path d="M1413 3925 c-12 -14 -18 -25 -14 -25 4 0 17 11 29 25 12 14 19 25 14
25 -4 0 -17 -12 -29 -25z"/>
<path d="M2205 3870 c-3 -5 -1 -10 4 -10 6 0 11 5 11 10 0 6 -2 10 -4 10 -3 0
-8 -4 -11 -10z"/>
<path d="M865 3844 c-9 -14 -14 -28 -12 -31 3 -2 33 -24 68 -49 l63 -44 -91 0
c-101 0 -136 -9 -152 -39 -11 -20 -11 -21 176 -154 l51 -37 21 29 21 29 -66
49 -66 48 103 3 c102 3 121 9 139 43 8 15 -8 30 -106 98 -63 45 -119 81 -123
81 -5 0 -16 -12 -26 -26z"/>
<path d="M2168 3853 c7 -3 16 -2 19 1 4 3 -2 6 -13 5 -11 0 -14 -3 -6 -6z"/>
<path d="M2231 3807 c-8 -11 -6 -18 8 -31 18 -17 20 -16 26 3 11 36 -12 54
-34 28z"/>
<path d="M2896 3785 c19 -29 12 -75 -11 -75 -13 0 -12 -6 3 -37 30 -61 35
-101 13 -113 -14 -7 -22 -6 -31 5 -17 21 -30 19 -30 -5 0 -35 -22 -69 -50 -75
-15 -3 -36 -14 -46 -23 -13 -12 -37 -17 -78 -17 -51 0 -63 4 -87 28 -16 16
-33 26 -39 22 -5 -3 -24 1 -42 8 -18 8 -38 12 -44 10 -6 -2 -37 46 -70 107
-32 60 -65 110 -73 110 -7 0 -11 -6 -8 -14 4 -9 -5 -19 -24 -26 -16 -7 -45
-31 -64 -53 -19 -22 -35 -35 -35 -29 0 17 -55 15 -70 -2 -13 -17 -10 -62 5
-59 6 1 19 5 29 9 14 5 17 4 12 -5 -4 -6 -4 -17 2 -24 18 -24 22 -46 6 -40 -7
3 -14 9 -14 14 0 5 -18 18 -40 29 -35 18 -40 25 -40 55 0 20 13 60 30 92 17
31 27 59 24 62 -3 3 -24 -14 -46 -39 -30 -33 -41 -41 -48 -30 -4 7 -4 24 1 37
5 14 9 38 9 54 0 23 -4 30 -17 27 -12 -2 -20 -17 -25 -47 -4 -25 -12 -49 -18
-55 -8 -8 -9 -5 -5 9 4 12 -1 8 -14 -10 -11 -16 -28 -52 -37 -80 -10 -27 -20
-52 -24 -55 -11 -8 -22 -70 -21 -120 1 -25 15 -82 32 -127 36 -95 78 -144 186
-216 83 -55 89 -62 72 -84 -12 -14 -10 -15 21 -8 55 12 142 54 174 83 l29 27
-8 -25 c-4 -14 -8 -41 -8 -60 0 -35 2 -47 21 -130 5 -25 10 -72 11 -105 l1
-60 -21 25 c-11 14 -54 66 -94 116 -68 85 -77 92 -118 98 -55 8 -148 53 -209
99 -27 20 -48 33 -48 28 0 -20 92 -317 102 -328 18 -23 30 -14 23 17 -9 42 -1
38 30 -15 20 -35 31 -45 45 -40 23 7 87 -64 143 -160 49 -83 77 -122 77 -106
0 7 -9 29 -20 51 -16 31 -17 38 -5 34 10 -4 15 0 15 10 0 20 14 21 30 1 7 -9
15 -13 18 -10 3 3 11 0 19 -6 10 -9 13 -8 13 3 0 8 7 15 16 15 20 0 54 -54 54
-84 0 -13 4 -23 10 -23 9 0 13 19 25 112 7 54 28 79 43 52 6 -11 16 -15 27
-11 17 7 17 -9 0 -188 -5 -58 -173 -397 -346 -699 -60 -103 -106 -192 -103
-197 8 -14 71 -27 206 -44 152 -18 218 -19 321 -3 59 9 80 9 89 0 9 -9 5 -12
-17 -12 -17 0 -67 -5 -112 -11 -78 -11 -81 -13 -87 -41 -5 -28 -8 -29 -53 -26
-44 3 -48 5 -48 28 0 21 -6 26 -40 32 -22 4 -60 11 -85 17 -25 5 -67 15 -93
20 -27 6 -53 14 -59 17 -6 4 -26 -11 -45 -32 -27 -29 -33 -42 -26 -53 6 -9 7
-25 2 -36 -4 -11 -8 -32 -8 -46 -1 -30 -24 -53 -54 -54 -35 0 -30 -23 10 -44
l38 -20 -36 6 c-35 5 -37 3 -44 -26 -4 -17 -11 -31 -16 -31 -6 0 -8 10 -5 23
4 12 -1 8 -11 -12 l-18 -33 30 -24 c23 -18 26 -24 13 -24 -10 0 -18 -6 -18
-14 0 -16 42 -46 65 -46 10 0 13 -5 9 -12 -4 -7 -3 -8 5 -4 6 4 18 1 26 -8 11
-10 12 -17 4 -22 -6 -3 -14 -2 -18 3 -3 5 -20 10 -38 11 -18 1 -44 7 -58 12
-15 6 -32 10 -38 9 -42 -2 192 -64 278 -73 l50 -5 -45 10 c-25 6 -49 14 -53
18 -11 11 110 5 158 -7 22 -6 109 -11 194 -11 142 -1 210 7 253 30 11 5 20 5
24 -2 4 -7 22 -9 45 -5 22 3 39 2 39 -3 0 -9 -103 -27 -230 -40 -56 -6 -63 -9
-30 -9 80 -3 378 47 338 55 -14 4 -34 32 -26 38 2 1 27 10 57 21 60 21 68 40
15 37 -35 -3 -35 -2 18 25 55 29 72 59 31 55 -18 -2 -26 5 -38 33 -12 30 -18
34 -37 29 -20 -5 -21 -5 -6 7 9 7 25 18 35 24 13 9 15 15 7 24 -8 8 -14 9 -18
1 -15 -24 -35 -8 -59 49 -18 41 -32 60 -44 60 -11 1 -5 7 15 15 34 15 47 51
13 40 -14 -4 -21 2 -31 25 -12 29 -14 30 -64 25 -51 -4 -51 -4 -9 5 23 5 52
14 63 20 23 12 22 37 -1 32 -53 -13 -69 -10 -70 11 -1 54 -10 107 -22 137
l-14 33 -23 -101 c-13 -55 -26 -105 -29 -111 -16 -26 -379 -22 -422 5 -4 2 0
19 9 38 13 29 31 42 111 80 120 57 151 68 151 56 0 -5 6 -7 14 -4 8 3 21 -4
29 -16 9 -13 20 -19 27 -15 9 5 10 1 6 -13 -10 -31 18 -34 47 -4 29 31 40 56
67 159 21 76 23 127 9 178 -6 23 -7 20 -3 -17 3 -27 1 -49 -6 -53 -6 -4 -10 6
-10 24 0 17 -2 31 -5 31 -9 0 -205 -136 -256 -178 -67 -54 -202 -157 -219
-167 -25 -15 4 17 94 103 153 146 173 167 226 237 56 73 110 200 110 262 0 40
12 72 39 100 22 23 28 39 11 28 -11 -7 5 42 20 60 4 5 15 28 24 49 l16 39 -21
-19 c-22 -19 -22 -19 -13 6 4 14 7 38 6 53 -1 17 3 25 9 21 7 -4 9 1 4 15 -4
14 -1 27 10 37 25 25 7 35 -95 47 l-92 12 -45 140 c-40 126 -64 214 -47 175 4
-8 27 -37 51 -63 47 -51 49 -46 15 41 -11 26 -22 40 -30 37 -7 -2 -21 9 -31
25 -10 17 -21 27 -26 22 -4 -4 -5 2 -1 12 4 11 3 22 -2 25 -5 3 -21 53 -36
111 -19 73 -37 116 -57 143 -44 55 -59 96 -46 124 13 28 17 28 67 3 32 -16 41
-28 50 -63 19 -72 170 -519 186 -549 8 -15 26 -31 39 -34 15 -4 31 -20 41 -40
9 -19 22 -34 28 -34 7 0 18 24 25 53 8 28 22 69 33 90 l18 37 -45 0 c-44 0
-46 1 -65 44 -10 24 -23 47 -29 50 -17 11 -13 41 7 59 11 10 36 17 61 17 33 0
47 -6 67 -27 23 -25 25 -34 21 -88 -3 -33 -13 -88 -22 -123 -10 -34 -15 -65
-12 -69 13 -12 46 30 85 106 41 80 42 99 11 143 -11 14 -19 30 -19 35 0 5 31
38 68 74 87 82 119 137 136 233 7 41 19 83 26 91 12 14 11 18 0 25 -8 5 -18 6
-22 4 -4 -3 -8 4 -8 16 0 32 -24 19 -30 -16 -3 -16 -8 -24 -12 -19 -7 13 -22
78 -20 88 1 4 -3 7 -10 7 -6 0 -9 2 -6 5 3 3 18 1 33 -5 21 -8 26 -8 22 3 -6
16 -111 163 -147 205 -33 38 -58 44 -34 7z m-912 -152 c0 -20 -6 -39 -12 -41
-7 -2 -12 -9 -12 -16 0 -7 -14 -25 -31 -42 l-31 -29 22 43 c12 23 26 42 31 42
5 0 8 6 7 13 -2 6 3 11 10 10 15 -4 16 13 2 22 -8 5 -7 11 1 21 15 19 15 19
13 -23z m271 -144 c4 -6 13 -8 20 -6 6 3 19 -3 28 -14 15 -17 15 -19 1 -19 -9
0 -34 -16 -56 -36 -41 -37 -65 -40 -61 -8 1 10 4 30 5 44 5 39 47 65 63 39z
m-250 -135 c41 -47 75 -93 75 -102 0 -10 15 -42 34 -72 19 -30 33 -56 31 -58
-1 -2 -34 13 -71 33 l-69 37 -21 72 c-11 40 -34 98 -51 128 -17 32 -24 54 -17
51 7 -3 47 -43 89 -89z m1021 -42 c12 -11 11 -19 -1 -49 -31 -75 -127 -164
-151 -140 -3 3 -2 26 4 51 5 25 7 46 5 46 -3 0 -18 -9 -34 -21 -39 -27 -37 -8
3 26 24 20 33 23 39 13 5 -7 6 2 3 22 -5 27 -2 40 12 50 16 14 17 13 11 -20
l-6 -35 15 28 c8 15 19 25 23 23 4 -3 19 6 32 20 16 17 25 21 28 12 2 -7 10
-19 17 -26z m-152 -5 c-10 -26 -22 -20 -16 9 3 15 8 22 14 16 5 -5 6 -16 2
-25z m-41 -56 c-5 -18 -33 -38 -33 -24 0 6 30 43 36 43 1 0 0 -9 -3 -19z m-48
-41 c-3 -5 -10 -10 -16 -10 -5 0 -9 5 -9 10 0 6 7 10 16 10 8 0 12 -4 9 -10z
m-59 -40 c24 0 24 -1 -8 -29 -68 -58 -109 -60 -72 -3 21 33 48 54 52 41 2 -5
15 -9 28 -9z m84 6 c0 -3 -4 -8 -10 -11 -5 -3 -10 -1 -10 4 0 6 5 11 10 11 6
0 10 -2 10 -4z m-516 -62 c3 -8 2 -12 -4 -9 -6 3 -10 10 -10 16 0 14 7 11 14
-7z m144 -155 c15 -81 15 -119 2 -119 -12 0 -17 25 -25 125 -8 95 6 91 23 -6z
m302 -71 c0 -7 -5 -20 -10 -28 -8 -12 -10 -9 -10 13 0 15 5 27 10 27 6 0 10
-6 10 -12z m-20 -508 c11 -7 -1 -10 -42 -10 -31 0 -60 5 -63 10 -8 13 85 13
105 0z m-411 -1021 c86 -14 355 -11 451 6 100 18 99 18 80 5 -8 -5 -25 -10
-37 -10 -38 0 -35 -18 7 -41 22 -12 38 -24 36 -27 -3 -2 -25 8 -50 23 -58 34
-122 33 -120 -2 1 -18 -6 -24 -40 -32 -34 -9 -25 -10 54 -6 52 2 84 0 70 -4
-17 -5 -25 -14 -25 -30 0 -31 -18 -37 -150 -45 -112 -7 -312 7 -327 22 -5 5
-2 15 7 22 21 18 19 30 -7 30 -13 0 -30 5 -38 11 -12 8 -10 9 10 5 14 -3 57
-7 95 -10 l70 -5 -52 11 c-51 10 -64 20 -43 33 23 14 9 26 -22 20 -22 -4 -28
-3 -20 3 11 7 10 11 -4 16 -9 3 -25 4 -35 1 -11 -4 -19 -2 -19 4 0 5 -8 12
-17 14 -24 7 59 -2 126 -14z m630 -153 c-2 -2 -22 -9 -43 -15 -22 -5 -35 -6
-30 -2 9 9 37 18 63 20 8 0 12 -1 10 -3z m-802 -12 c-3 -3 -12 -4 -19 -1 -8 3
-5 6 6 6 11 1 17 -2 13 -5z m353 -29 c52 0 149 3 215 6 133 7 81 -6 -75 -19
l-85 -7 -3 -42 -3 -43 -59 0 -59 0 -3 43 -3 42 -65 7 c-36 4 -85 11 -110 17
-34 7 -21 8 55 3 55 -4 143 -7 195 -7z m-331 -110 c181 -38 510 -38 710 1 41
7 76 12 78 10 5 -4 -47 -16 -181 -41 -49 -9 -99 -23 -110 -30 -50 -31 -327
-24 -366 10 -8 7 -59 23 -112 35 -54 12 -98 24 -98 26 0 6 1 6 79 -11z m746
-75 c-3 -5 -11 -10 -16 -10 -6 0 -7 5 -4 10 3 6 11 10 16 10 6 0 7 -4 4 -10z"/>
<path d="M2150 3769 c0 -5 5 -7 10 -4 6 3 10 8 10 11 0 2 -4 4 -10 4 -5 0 -10
-5 -10 -11z"/>
<path d="M675 3714 c-9 -15 -12 -23 -6 -20 11 7 35 46 28 46 -3 0 -12 -12 -22
-26z"/>
<path d="M4330 3726 c0 -2 8 -10 18 -17 15 -13 16 -12 3 4 -13 16 -21 21 -21
13z"/>
<path d="M2815 3670 c-4 -6 5 -10 20 -10 15 0 24 4 20 10 -3 6 -12 10 -20 10
-8 0 -17 -4 -20 -10z"/>
<path d="M2678 3659 c-21 -12 -24 -31 -5 -23 7 2 29 -6 48 -19 42 -28 132 -33
137 -6 2 11 -7 19 -30 24 -18 4 -37 7 -42 6 -4 -1 -14 4 -22 10 -11 9 -14 7
-14 -12 l-1 -24 -20 28 c-23 30 -26 31 -51 16z"/>
<path d="M623 3638 c-15 -20 -25 -38 -20 -38 3 0 12 11 21 25 17 26 16 35 -1
13z"/>
<path d="M4240 3620 c0 -20 5 -30 15 -30 19 0 55 -36 55 -55 0 -9 -10 -20 -23
-26 -19 -8 -42 -5 -111 17 -71 22 -92 25 -112 16 -13 -7 -24 -16 -24 -21 0 -5
16 -38 37 -73 67 -116 61 -110 86 -97 12 7 24 13 26 15 2 2 -9 24 -24 49 -15
26 -25 48 -23 51 3 2 31 -5 63 -16 76 -26 97 -25 134 6 24 20 31 34 31 60 0
64 -55 134 -106 134 -20 0 -24 -5 -24 -30z"/>
<path d="M2495 3564 c-9 -15 -12 -23 -6 -20 11 7 35 46 28 46 -3 0 -12 -12
-22 -26z"/>
<path d="M565 3540 c-9 -16 -13 -30 -11 -30 3 0 12 14 21 30 9 17 13 30 11 30
-3 0 -12 -13 -21 -30z"/>
<path d="M656 3548 c-9 -12 -16 -26 -16 -30 0 -8 242 -138 257 -138 5 0 15 12
22 27 10 21 9 28 -1 35 -24 16 -235 128 -241 128 -3 0 -13 -10 -21 -22z"/>
<path d="M516 3443 c-6 -14 -5 -15 5 -6 7 7 10 15 7 18 -3 3 -9 -2 -12 -12z"/>
<path d="M496 3405 c-9 -26 -7 -32 5 -12 6 10 9 21 6 23 -2 3 -7 -2 -11 -11z"/>
<path d="M571 3393 c-15 -32 -13 -34 92 -69 89 -30 114 -55 98 -97 -15 -40
-46 -41 -148 -7 -51 16 -94 30 -96 30 -6 0 -30 -60 -26 -64 2 -1 44 -17 93
-34 133 -48 186 -42 225 28 13 23 21 55 21 83 0 39 -5 49 -34 75 -29 25 -168
82 -202 82 -6 0 -16 -12 -23 -27z"/>
<path d="M3131 3360 c0 -35 3 -50 8 -40 5 8 5 33 1 55 -8 40 -8 40 -9 -15z"/>
<path d="M4290 3373 c-104 -44 -129 -143 -55 -213 52 -49 164 -34 228 31 37
37 39 42 34 86 -4 38 -12 54 -41 80 -30 28 -43 33 -83 32 -27 0 -64 -7 -83
-16z m130 -67 c31 -38 -13 -87 -92 -101 -29 -6 -40 -3 -58 15 -19 19 -20 24
-7 43 30 47 130 74 157 43z"/>
<path d="M4541 3355 c0 -5 9 -28 20 -50 10 -22 16 -29 13 -15 -7 28 -33 80
-33 65z"/>
<path d="M421 3220 c-18 -45 -34 -96 -37 -113 -3 -18 8 8 25 56 17 49 36 98
42 109 6 11 8 22 6 25 -3 2 -19 -32 -36 -77z"/>
<path d="M4596 3205 c13 -54 43 -139 43 -126 1 18 -38 151 -45 151 -2 0 -2
-11 2 -25z"/>
<path d="M4480 3120 c-15 -28 -12 -44 10 -58 13 -8 20 -23 20 -42 0 -44 -33
-39 -127 18 -59 37 -84 47 -103 42 -30 -7 -30 -2 -6 -117 l20 -93 34 0 c34 0
35 0 28 38 -3 20 -9 48 -13 61 -6 24 -5 24 41 -8 84 -58 134 -64 176 -19 42
46 15 159 -45 186 -21 10 -26 9 -35 -8z"/>
<path d="M487 3050 c-40 -25 -48 -36 -63 -87 -9 -32 -19 -62 -22 -67 -3 -5 0
-6 6 -2 8 5 12 -1 12 -17 0 -33 36 -76 76 -93 74 -31 173 -7 203 49 9 17 35
52 59 79 38 44 43 55 40 91 -2 35 -7 43 -25 45 -15 2 -23 -2 -23 -12 0 -8 -5
-27 -11 -43 l-11 -28 -19 38 c-14 27 -33 45 -62 58 -61 27 -105 24 -160 -11z
m146 -69 c10 -10 19 -31 19 -48 1 -31 -27 -82 -46 -84 -6 0 -19 -2 -28 -4 -10
-2 -18 1 -18 6 0 4 -7 5 -17 2 -10 -4 -14 -2 -10 4 4 5 -5 15 -18 21 -64 29
-2 141 69 127 17 -4 39 -15 49 -24z"/>
<path d="M356 2993 c-23 -107 -46 -285 -46 -360 l0 -61 58 -44 c31 -23 85 -65
118 -91 l61 -48 7 -67 c11 -108 43 -236 87 -348 23 -58 43 -103 45 -102 1 2
-10 41 -27 86 -16 46 -35 110 -43 143 -12 52 -12 58 1 47 29 -24 43 -18 44 20
1 22 3 29 6 17 8 -33 23 -42 24 -15 0 14 3 19 6 13 9 -23 23 -13 23 16 0 21 5
28 18 27 9 0 20 -5 24 -10 3 -5 13 -11 22 -12 16 -2 16 -4 -5 111 -6 33 -13
137 -16 230 -2 94 -7 177 -10 185 -4 8 -7 18 -7 22 -1 3 -5 10 -10 15 -5 4 -6
3 -3 -3 4 -7 0 -15 -9 -18 -9 -4 -13 -2 -8 5 4 8 -1 9 -17 4 -18 -5 -20 -4 -9
4 8 5 11 13 7 17 -4 4 -1 14 6 23 11 14 10 14 -5 2 -10 -7 -15 -18 -11 -24 4
-6 0 -8 -9 -4 -9 3 -20 1 -25 -4 -5 -5 -34 -11 -65 -13 -43 -4 -64 0 -94 16
-43 23 -70 50 -79 79 -4 11 -11 17 -16 14 -5 -4 -9 3 -9 14 0 13 -5 19 -14 15
-13 -5 -25 -66 -40 -199 -2 -22 -3 -19 -5 12 -1 49 13 166 35 276 9 43 14 81
11 83 -2 2 -12 -31 -21 -73z m-29 -395 c-2 -13 -4 -5 -4 17 -1 22 1 32 4 23 2
-10 2 -28 0 -40z"/>
<path d="M4646 3030 c3 -19 12 -69 20 -110 7 -41 16 -115 18 -165 5 -85 5 -87
-4 -25 -5 36 -12 74 -14 85 -6 25 -72 60 -82 44 -4 -8 -9 -7 -15 2 -7 11 -9
10 -9 -3 0 -15 -4 -16 -27 -7 -33 12 -143 9 -143 -4 0 -5 -9 -7 -21 -4 -12 3
-18 3 -15 0 3 -3 -6 -19 -19 -35 -17 -20 -25 -43 -26 -71 l-1 -42 -9 40 c-25
105 -37 52 -40 -169 -2 -87 -6 -179 -10 -205 -5 -25 -13 -80 -19 -121 -6 -41
-13 -88 -16 -105 l-5 -30 18 35 c11 22 27 36 42 38 17 3 22 0 18 -11 -3 -7 -2
-19 2 -26 6 -10 12 -9 25 4 9 9 16 11 16 5 0 -6 5 -8 10 -5 6 4 10 -5 10 -19
0 -34 16 -33 25 1 4 19 9 23 15 14 6 -11 10 -9 19 5 27 47 -32 -164 -74 -261
-9 -22 -12 -35 -5 -29 34 34 123 343 137 482 l6 54 119 91 120 92 -6 125 c-6
121 -33 289 -55 340 -11 23 -11 22 -5 -10z m-105 -266 c17 -21 -5 -17 -32 5
-24 20 -24 20 -2 14 12 -3 28 -11 34 -19z m-103 -28 c4 -35 -7 -47 -36 -40
-38 11 -22 79 18 72 8 -2 16 -16 18 -32z m-82 -114 c-8 -7 -25 8 -37 31 -11
21 -10 21 15 -2 14 -14 24 -26 22 -29z m134 13 c-13 -14 -27 -25 -32 -25 -9 0
42 49 51 50 3 0 -6 -11 -19 -25z m120 3 c10 -6 7 -7 -10 -2 -14 3 -32 11 -40
16 -10 6 -7 7 10 2 14 -3 32 -11 40 -16z"/>
<path d="M4798 2946 c-3 -15 -1 -85 4 -154 15 -193 4 -431 -27 -597 -37 -196
-39 -213 -25 -195 9 12 10 9 6 -15 -5 -25 -4 -28 6 -14 7 9 17 16 23 17 5 0
12 9 16 19 4 10 8 13 8 7 2 -20 -87 -261 -119 -324 -17 -34 -29 -65 -26 -68 9
-8 79 149 121 268 21 59 37 126 38 153 0 26 4 42 7 37 10 -16 50 191 43 223
-3 15 -1 33 4 40 12 16 -3 433 -20 522 -8 47 -17 70 -26 70 -8 0 -17 9 -21 20
-6 17 -7 16 -12 -9z m39 -828 c-3 -8 -6 -5 -6 6 -1 11 2 17 5 13 3 -3 4 -12 1
-19z"/>
<path d="M201 2951 c-1 -7 -7 -11 -15 -8 -9 4 -14 -2 -14 -16 -1 -12 -6 -49
-12 -82 -13 -69 -21 -583 -9 -545 7 19 7 14 4 -16 -3 -23 -2 -64 2 -90 5 -38
8 -44 15 -29 6 15 7 11 3 -12 -6 -45 5 -99 17 -81 6 8 7 1 3 -21 -4 -18 -3
-31 1 -28 5 3 10 -10 11 -27 1 -18 18 -77 38 -132 38 -101 150 -344 159 -344
2 0 -19 51 -49 113 -85 181 -139 360 -99 326 11 -9 14 -7 14 7 0 16 2 17 11 4
8 -11 9 -8 4 15 -46 204 -75 423 -75 564 0 91 16 344 23 371 1 4 -2 8 -8 8 -5
0 -12 9 -16 19 -5 10 -8 12 -8 4z m-34 -733 c-3 -8 -6 -5 -6 6 -1 11 2 17 5
13 3 -3 4 -12 1 -19z"/>
<path d="M2989 2843 c-22 -49 -55 -122 -71 -163 -16 -41 -45 -102 -63 -135
-29 -53 -34 -74 -44 -185 -7 -69 -14 -143 -17 -165 -5 -38 -5 -39 9 -19 27 36
93 226 116 332 9 42 2 60 -20 46 -6 -3 -4 7 5 24 16 32 120 292 131 330 13 46
-5 19 -46 -65z"/>
<path d="M4460 2889 c0 -5 5 -7 10 -4 6 3 10 8 10 11 0 2 -4 4 -10 4 -5 0 -10
-5 -10 -11z"/>
<path d="M4893 2435 c0 -22 2 -30 4 -17 2 12 2 30 0 40 -3 9 -5 -1 -4 -23z"/>
<path d="M132 2390 c0 -19 2 -27 5 -17 2 9 2 25 0 35 -3 9 -5 1 -5 -18z"/>
<path d="M2765 2389 c-17 -31 -12 -56 5 -29 9 13 10 13 11 0 1 -20 17 18 18
43 1 27 -17 20 -34 -14z"/>
<path d="M2180 2262 c23 -46 43 -98 45 -115 23 -218 27 -273 21 -307 -6 -39
-2 -47 20 -32 6 4 36 54 67 112 46 88 53 109 45 127 -9 18 -3 41 27 118 21 52
35 98 32 101 -3 3 -8 -3 -11 -13 -8 -23 -72 -67 -85 -58 -14 8 -14 -18 0 -32
6 -6 9 -23 7 -39 l-3 -29 -49 50 c-26 28 -69 79 -94 115 -66 94 -68 94 -22 2z"/>
<path d="M4486 1705 c-3 -8 -1 -15 3 -15 5 0 11 7 15 15 3 8 1 15 -3 15 -5 0
-11 -7 -15 -15z"/>
<path d="M4454 1643 c-9 -15 -25 -39 -34 -53 -9 -14 -20 -35 -24 -46 -4 -12
-15 -29 -26 -39 -11 -10 -20 -24 -20 -31 0 -7 -15 -29 -34 -50 -25 -27 -38
-35 -54 -30 -27 9 -38 -10 -14 -25 17 -11 17 -13 -7 -40 -25 -28 -49 -40 -35
-18 4 7 1 10 -6 7 -22 -7 -22 -25 0 -31 16 -4 32 9 74 61 83 105 212 309 202
319 -2 3 -12 -8 -22 -24z"/>
<path d="M4355 1651 c-7 -12 12 -24 25 -16 11 7 4 25 -10 25 -5 0 -11 -4 -15
-9z"/>
<path d="M4345 1601 c-3 -5 0 -13 7 -17 6 -4 14 -2 16 4 2 7 9 9 14 6 7 -4 8
-2 4 4 -9 14 -33 16 -41 3z"/>
<path d="M4635 1579 c-4 -6 -5 -12 -2 -15 2 -3 7 2 10 11 7 17 1 20 -8 4z"/>
<path d="M702 1523 c-15 -6 -6 -23 12 -23 7 0 13 7 13 15 0 16 -4 17 -25 8z"/>
<path d="M760 1500 c-12 -7 -12 -12 -2 -22 9 -9 15 -9 24 0 16 16 -2 34 -22
22z"/>
<path d="M4240 1485 c0 -10 7 -15 18 -13 21 4 19 22 -2 26 -10 2 -16 -3 -16
-13z"/>
<path d="M697 1474 c-9 -9 4 -34 18 -34 14 0 27 25 18 34 -4 3 -12 6 -18 6 -6
0 -14 -3 -18 -6z"/>
<path d="M455 1436 c10 -14 19 -26 22 -26 7 0 -17 39 -28 46 -6 3 -3 -5 6 -20z"/>
<path d="M761 1451 c-15 -10 -8 -41 9 -41 15 0 25 29 14 40 -5 5 -15 5 -23 1z"/>
<path d="M4240 1445 c-10 -11 -10 -19 -2 -27 15 -15 44 -2 40 19 -4 23 -22 27
-38 8z"/>
<path d="M806 1415 c-3 -9 1 -18 10 -22 19 -7 28 2 21 22 -8 19 -23 19 -31 0z"/>
<path d="M4185 1420 c-4 -7 -3 -16 3 -22 14 -14 45 -2 40 15 -6 16 -34 21 -43
7z"/>
<path d="M806 1364 c-10 -26 -7 -34 13 -34 23 0 34 23 18 39 -15 15 -24 14
-31 -5z"/>
<path d="M4184 1365 c-7 -18 3 -35 21 -35 15 0 24 19 18 38 -6 17 -32 15 -39
-3z"/>
<path d="M4130 1329 c-14 -24 -6 -49 14 -49 15 0 39 54 29 64 -13 12 -33 5
-43 -15z"/>
<path d="M3025 1180 c3 -5 8 -10 11 -10 2 0 4 5 4 10 0 6 -5 10 -11 10 -5 0
-7 -4 -4 -10z"/>
<path d="M1650 1165 c0 -7 101 -57 106 -53 2 2 -21 16 -51 31 -30 15 -55 25
-55 22z"/>
<path d="M3020 1000 c-30 -10 -46 -18 -35 -18 11 0 43 8 70 18 64 24 37 24
-35 0z"/>
<path d="M2288 933 c12 -2 30 -2 40 0 9 3 -1 5 -23 4 -22 0 -30 -2 -17 -4z"/>
<path d="M2383 923 c20 -2 54 -2 75 0 20 2 3 4 -38 4 -41 0 -58 -2 -37 -4z"/>
<path d="M2108 353 c6 -2 18 -2 25 0 6 3 1 5 -13 5 -14 0 -19 -2 -12 -5z"/>
<path d="M2898 353 c6 -2 18 -2 25 0 6 3 1 5 -13 5 -14 0 -19 -2 -12 -5z"/>
<path d="M2843 343 c9 -2 23 -2 30 0 6 3 -1 5 -18 5 -16 0 -22 -2 -12 -5z"/>
<path d="M2773 333 c9 -2 23 -2 30 0 6 3 -1 5 -18 5 -16 0 -22 -2 -12 -5z"/>
</g>
</svg>
